<svg width="193" height="165" viewBox="0 0 193 165" fill="none" xmlns="http://www.w3.org/2000/svg">
<circle cx="96.3594" cy="99" r="65" fill="#E1242A" fill-opacity="0.04" stroke="#E1242A" stroke-width="2"/>
<path d="M105.403 89.1001L104.261 118.8M88.4588 118.8L87.3165 89.1001M120.211 78.5089C121.34 78.6794 122.464 78.8617 123.585 79.0558M120.211 78.5089L116.687 124.32C116.39 128.188 113.164 131.175 109.284 131.175H83.4355C79.5557 131.175 76.33 128.188 76.0324 124.32L72.5085 78.5089M120.211 78.5089C116.428 77.9376 112.601 77.5001 108.735 77.2013M69.1348 79.0558C70.2554 78.8617 71.38 78.6794 72.5085 78.5089M72.5085 78.5089C76.2917 77.9376 80.1188 77.5001 83.9848 77.2013M108.735 77.2013V74.1781C108.735 70.2862 105.73 67.037 101.84 66.9126C100.02 66.8544 98.1934 66.8251 96.3598 66.8251C94.5261 66.8251 92.6993 66.8544 90.8798 66.9126C86.9899 67.037 83.9848 70.2862 83.9848 74.1781V77.2013M108.735 77.2013C104.651 76.8858 100.524 76.7251 96.3598 76.7251C92.1953 76.7251 88.0683 76.8858 83.9848 77.2013" stroke="#E1242A" stroke-width="1.5" stroke-linecap="round" stroke-linejoin="round"/>
<path d="M51.1484 35.9701L61.0484 26.0701M51.1484 26.0701L61.0484 35.9701" stroke="#E1242A" stroke-width="1.5" stroke-linecap="round" stroke-linejoin="round"/>
<path d="M177.869 75.5699L187.769 65.6699M177.869 65.6699L187.769 75.5699" stroke="#E1242A" stroke-width="1.5" stroke-linecap="round" stroke-linejoin="round"/>
<path d="M4.94922 86.13L14.8492 76.23M4.94922 76.23L14.8492 86.13" stroke="#E1242A" stroke-width="1.5" stroke-linecap="round" stroke-linejoin="round"/>
<path d="M111.869 28.0499L121.769 18.1499M111.869 18.1499L121.769 28.0499" stroke="#E1242A" stroke-width="1.5" stroke-linecap="round" stroke-linejoin="round"/>
<path d="M28.6078 34.75C28.8002 34.4167 29.2813 34.4167 29.4738 34.75L35.7438 45.61C35.9363 45.9433 35.6957 46.36 35.3108 46.36H22.7708C22.3859 46.36 22.1453 45.9433 22.3377 45.61L28.6078 34.75Z" fill="#D9D9D9" stroke="#E1242A"/>
<path d="M157.967 32.1101C158.16 31.7768 158.641 31.7768 158.833 32.1101L165.103 42.9701C165.296 43.3034 165.055 43.7201 164.67 43.7201H152.13C151.745 43.7201 151.505 43.3034 151.697 42.9701L157.967 32.1101Z" fill="#D9D9D9" stroke="#E1242A"/>
<path d="M81.4066 1.75C81.599 1.41667 82.0802 1.41667 82.2726 1.75L88.5426 12.61C88.7351 12.9433 88.4945 13.36 88.1096 13.36H75.5696C75.1847 13.36 74.9441 12.9433 75.1366 12.61L81.4066 1.75Z" fill="#D9D9D9" stroke="#E1242A"/>
</svg>
