<svg width="295" height="255" viewBox="0 0 295 255" fill="none" xmlns="http://www.w3.org/2000/svg">
<circle cx="7.5" cy="7.5" r="7.5" fill="#698E94" fill-opacity="0.1"/>
<circle cx="47.5" cy="7.5" r="7.5" fill="#698E94" fill-opacity="0.1"/>
<circle cx="87.5" cy="7.5" r="7.5" fill="#698E94" fill-opacity="0.1"/>
<circle cx="127.5" cy="7.5" r="7.5" fill="#698E94" fill-opacity="0.1"/>
<circle cx="167.5" cy="7.5" r="7.5" fill="#698E94" fill-opacity="0.1"/>
<circle cx="207.5" cy="7.5" r="7.5" fill="#698E94" fill-opacity="0.1"/>
<circle cx="247.5" cy="7.5" r="7.5" fill="#698E94" fill-opacity="0.1"/>
<circle cx="287.5" cy="7.5" r="7.5" fill="#698E94" fill-opacity="0.1"/>
<circle cx="7.5" cy="47.5" r="7.5" fill="#698E94" fill-opacity="0.1"/>
<circle cx="47.5" cy="47.5" r="7.5" fill="#698E94" fill-opacity="0.1"/>
<circle cx="87.5" cy="47.5" r="7.5" fill="#698E94" fill-opacity="0.1"/>
<circle cx="127.5" cy="47.5" r="7.5" fill="#698E94" fill-opacity="0.1"/>
<circle cx="167.5" cy="47.5" r="7.5" fill="#698E94" fill-opacity="0.1"/>
<circle cx="207.5" cy="47.5" r="7.5" fill="#698E94" fill-opacity="0.1"/>
<circle cx="247.5" cy="47.5" r="7.5" fill="#698E94" fill-opacity="0.1"/>
<circle cx="287.5" cy="47.5" r="7.5" fill="#698E94" fill-opacity="0.1"/>
<circle cx="7.5" cy="87.5" r="7.5" fill="#698E94" fill-opacity="0.1"/>
<circle cx="47.5" cy="87.5" r="7.5" fill="#698E94" fill-opacity="0.1"/>
<circle cx="87.5" cy="87.5" r="7.5" fill="#698E94" fill-opacity="0.1"/>
<circle cx="127.5" cy="87.5" r="7.5" fill="#698E94" fill-opacity="0.1"/>
<circle cx="167.5" cy="87.5" r="7.5" fill="#698E94" fill-opacity="0.1"/>
<circle cx="207.5" cy="87.5" r="7.5" fill="#698E94" fill-opacity="0.1"/>
<circle cx="247.5" cy="87.5" r="7.5" fill="#698E94" fill-opacity="0.1"/>
<circle cx="287.5" cy="87.5" r="7.5" fill="#698E94" fill-opacity="0.1"/>
<circle cx="7.5" cy="127.5" r="7.5" fill="#698E94" fill-opacity="0.1"/>
<circle cx="47.5" cy="127.5" r="7.5" fill="#698E94" fill-opacity="0.1"/>
<circle cx="87.5" cy="127.5" r="7.5" fill="#698E94" fill-opacity="0.1"/>
<circle cx="127.5" cy="127.5" r="7.5" fill="#698E94" fill-opacity="0.1"/>
<circle cx="167.5" cy="127.5" r="7.5" fill="#698E94" fill-opacity="0.1"/>
<circle cx="207.5" cy="127.5" r="7.5" fill="#698E94" fill-opacity="0.1"/>
<circle cx="247.5" cy="127.5" r="7.5" fill="#698E94" fill-opacity="0.1"/>
<circle cx="287.5" cy="127.5" r="7.5" fill="#698E94" fill-opacity="0.1"/>
<circle cx="7.5" cy="167.5" r="7.5" fill="#698E94" fill-opacity="0.1"/>
<circle cx="47.5" cy="167.5" r="7.5" fill="#698E94" fill-opacity="0.1"/>
<circle cx="87.5" cy="167.5" r="7.5" fill="#698E94" fill-opacity="0.1"/>
<circle cx="127.5" cy="167.5" r="7.5" fill="#698E94" fill-opacity="0.1"/>
<circle cx="167.5" cy="167.5" r="7.5" fill="#698E94" fill-opacity="0.1"/>
<circle cx="207.5" cy="167.5" r="7.5" fill="#698E94" fill-opacity="0.1"/>
<circle cx="247.5" cy="167.5" r="7.5" fill="#698E94" fill-opacity="0.1"/>
<circle cx="287.5" cy="167.5" r="7.5" fill="#698E94" fill-opacity="0.1"/>
<circle cx="7.5" cy="207.5" r="7.5" fill="#698E94" fill-opacity="0.1"/>
<circle cx="47.5" cy="207.5" r="7.5" fill="#698E94" fill-opacity="0.1"/>
<circle cx="87.5" cy="207.5" r="7.5" fill="#698E94" fill-opacity="0.1"/>
<circle cx="127.5" cy="207.5" r="7.5" fill="#698E94" fill-opacity="0.1"/>
<circle cx="167.5" cy="207.5" r="7.5" fill="#698E94" fill-opacity="0.1"/>
<circle cx="207.5" cy="207.5" r="7.5" fill="#698E94" fill-opacity="0.1"/>
<circle cx="247.5" cy="207.5" r="7.5" fill="#698E94" fill-opacity="0.1"/>
<circle cx="287.5" cy="207.5" r="7.5" fill="#698E94" fill-opacity="0.1"/>
<circle cx="7.5" cy="247.5" r="7.5" fill="#698E94" fill-opacity="0.1"/>
<circle cx="47.5" cy="247.5" r="7.5" fill="#698E94" fill-opacity="0.1"/>
<circle cx="87.5" cy="247.5" r="7.5" fill="#698E94" fill-opacity="0.1"/>
<circle cx="127.5" cy="247.5" r="7.5" fill="#698E94" fill-opacity="0.1"/>
<circle cx="167.5" cy="247.5" r="7.5" fill="#698E94" fill-opacity="0.1"/>
<circle cx="207.5" cy="247.5" r="7.5" fill="#698E94" fill-opacity="0.1"/>
<circle cx="247.5" cy="247.5" r="7.5" fill="#698E94" fill-opacity="0.1"/>
<circle cx="287.5" cy="247.5" r="7.5" fill="#698E94" fill-opacity="0.1"/>
</svg>
