<svg width="416" height="403" viewBox="0 0 416 403" fill="none" xmlns="http://www.w3.org/2000/svg">
<g clip-path="url(#clip0_61_23078)">
<path opacity="0.18" d="M126.786 271.981C154.066 283.968 184.922 283.784 214.722 283.388C230.354 283.19 246.527 282.874 260.761 276.399C280.548 267.392 293.397 248.059 310.757 234.977C330.69 219.929 356.202 213.441 375.528 197.629C384.934 189.939 392.551 180.292 397.848 169.359C403.145 158.427 405.995 146.472 406.2 134.326C406.404 122.18 403.959 110.136 399.033 99.0313C394.107 87.9266 386.82 78.0285 377.678 70.026C367.455 61.0848 355.253 54.7679 343.156 48.5565L282.408 17.3019C268.174 9.9828 253.571 2.54499 237.688 0.553659C224.286 -1.12117 210.724 1.19985 197.625 4.19344C160.293 12.6335 123.25 27.1794 95.8644 53.8052C72.304 76.7516 56.9225 107.571 31.146 127.999C24.5501 133.208 17.2419 137.81 12.4401 144.694C-4.84097 169.5 12.6644 201.19 35.1167 213.903C66.2095 231.495 94.189 257.672 126.786 271.981Z" fill="#68E1FD"/>
<path d="M208.007 403C322.885 403 416.013 391.498 416.013 377.311C416.013 363.123 322.885 351.621 208.007 351.621C93.1277 351.621 0 363.123 0 377.311C0 391.498 93.1277 403 208.007 403Z" fill="#68E1FD"/>
<path d="M208.007 403C322.885 403 416.013 391.498 416.013 377.311C416.013 363.123 322.885 351.621 208.007 351.621C93.1277 351.621 0 363.123 0 377.311C0 391.498 93.1277 403 208.007 403Z" fill="url(#paint0_linear_61_23078)"/>
<path d="M94.0566 126.337C90.1983 123.722 85.8541 121.907 81.2813 121.001C76.7085 120.095 72.0003 120.116 67.4357 121.062C65.765 121.322 64.1864 121.998 62.845 123.027C59.7186 125.665 60.2067 130.571 59.3756 134.606C58.3599 139.578 55.0224 143.837 53.8219 148.743C53.1228 152.435 53.0826 156.221 53.7032 159.926C55.4609 174.543 58.964 188.897 64.1378 202.68L49.627 393.782C49.627 393.782 64.4676 396.182 94.5711 398.582L97.7634 216.593L94.0566 126.337Z" fill="#EEA886"/>
<path d="M77.5537 237.786L96.774 315.487V203.419L88.2258 178.02L77.5537 237.786Z" fill="url(#paint1_linear_61_23078)"/>
<path d="M328.895 127.972C332.762 125.376 337.11 123.581 341.682 122.693C346.255 121.805 350.959 121.842 355.516 122.803C357.189 123.069 358.771 123.744 360.12 124.768C363.233 127.405 362.758 132.311 363.576 136.36C364.605 141.331 367.943 145.591 369.143 150.497C369.844 154.184 369.88 157.967 369.249 161.667C367.503 176.284 364.004 190.639 358.827 204.421L373.272 392.859C373.272 392.859 357.112 395.575 328.236 398.305L325.136 218.321L328.895 127.972Z" fill="#EEA886"/>
<path d="M347.865 232.234L341.045 267.247L326.521 298.831L325.241 230.097L347.865 232.234Z" fill="url(#paint2_linear_61_23078)"/>
<path d="M337.681 63.8281H80.4829C74.3848 63.8281 69.4414 68.77 69.4414 74.8661V228.673C69.4414 234.769 74.3848 239.711 80.4829 239.711H337.681C343.779 239.711 348.723 234.769 348.723 228.673V74.8661C348.723 68.77 343.779 63.8281 337.681 63.8281Z" fill="#68E1FD"/>
<path d="M337.681 63.8281H80.4829C74.3848 63.8281 69.4414 68.77 69.4414 74.8661V228.673C69.4414 234.769 74.3848 239.711 80.4829 239.711H337.681C343.779 239.711 348.723 234.769 348.723 228.673V74.8661C348.723 68.77 343.779 63.8281 337.681 63.8281Z" fill="url(#paint3_linear_61_23078)"/>
<path d="M337.681 56.7725H80.4829C74.3848 56.7725 69.4414 61.7144 69.4414 67.8105V221.618C69.4414 227.714 74.3848 232.656 80.4829 232.656H337.681C343.779 232.656 348.723 227.714 348.723 221.618V67.8105C348.723 61.7144 343.779 56.7725 337.681 56.7725Z" fill="#68E1FD"/>
<path d="M94.1758 130.096C98.6214 125.163 98.6214 125.163 103.647 119.255L125.058 94.1989C128.425 90.523 131.512 86.5996 134.292 82.4619H154.515C153.947 87.8981 153.687 93.3622 153.736 98.8277V130.887H156.599C159.868 130.856 163.13 130.591 166.361 130.096V148.057C163.153 147.659 159.924 147.461 156.691 147.464H153.736V152.396C153.645 156.455 153.906 160.514 154.515 164.528H134.199C134.75 160.442 135.01 156.321 134.978 152.198V147.437H107.011C100.587 147.437 97.7771 147.53 94.1758 147.82V130.096ZM135.07 119.651C135.07 115.207 135.268 109.787 135.664 105.448C133.685 108.204 132.207 110.182 129.543 113.532L115.098 131.085H135.03L135.07 119.651Z" fill="white"/>
<path d="M182.678 157.13C179.529 154.032 177.074 150.302 175.476 146.184C172.876 138.939 171.572 131.292 171.624 123.594C171.624 113.229 174.09 102.494 177.85 96.2694C183.865 86.2072 194.129 80.6816 206.555 80.6816C216.132 80.6816 224.522 83.939 230.538 89.913C233.69 93.0075 236.146 96.7392 237.74 100.859C240.354 108.133 241.658 115.812 241.592 123.541C241.592 133.907 239.125 144.76 235.379 150.972C229.456 160.836 219.087 166.362 206.555 166.362C196.886 166.309 188.707 163.144 182.678 157.13ZM191.912 122.842C191.912 140.501 196.938 149.574 206.713 149.574C216.489 149.574 221.317 140.698 221.317 123.198C221.264 106.226 216.093 97.3244 206.555 97.3244C197.281 97.3244 191.86 106.727 191.86 122.803L191.912 122.842Z" fill="white"/>
<path d="M246.711 130.096C251.157 125.163 251.157 125.163 256.183 119.255L277.606 94.1989C280.952 90.5215 284.016 86.5982 286.774 82.4619H307.01C306.431 87.8974 306.167 93.3618 306.219 98.8277V130.887H309.081C312.35 130.856 315.612 130.591 318.843 130.096V148.057C315.635 147.659 312.406 147.461 309.174 147.464H306.219V152.396C306.125 156.455 306.389 160.515 307.01 164.528H286.682C287.238 160.442 287.502 156.322 287.473 152.198V147.437H259.546C253.135 147.437 250.312 147.53 246.711 147.82V130.096ZM287.605 119.651C287.605 115.207 287.803 109.787 288.199 105.448C286.22 108.204 284.743 110.182 282.078 113.532L267.633 131.085H287.566L287.605 119.651Z" fill="white"/>
<path d="M95.1255 193.423C96.7869 193.151 98.4681 193.019 100.152 193.027C102.194 192.872 104.222 193.473 105.85 194.715C106.437 195.251 106.9 195.909 107.208 196.642C107.515 197.376 107.66 198.167 107.631 198.961C107.672 199.753 107.554 200.544 107.284 201.289C107.015 202.034 106.599 202.718 106.061 203.3C105.23 204.072 104.251 204.667 103.183 205.05C102.115 205.433 100.981 205.596 99.8481 205.529C99.144 205.554 98.4394 205.492 97.7506 205.344V213.481H95.1123L95.1255 193.423ZM97.7638 203.208C98.4728 203.372 99.2 203.443 99.9273 203.419C103.093 203.419 105.019 201.889 105.019 199.08C105.019 196.271 103.12 195.124 100.231 195.124C99.4031 195.101 98.5756 195.172 97.7638 195.335V203.208Z" fill="white"/>
<path d="M111.879 207.098L109.768 213.481H107.13L114.016 193.185H117.156L124.081 213.481H121.285L119.121 207.098H111.879ZM118.475 205.054L116.483 199.212C116.034 197.893 115.731 196.68 115.427 195.506C115.137 196.706 114.794 197.946 114.412 199.172L112.42 205.054H118.475Z" fill="white"/>
<path d="M142.061 212.571C140.059 213.293 137.95 213.672 135.822 213.692C134.435 213.825 133.035 213.653 131.722 213.188C130.409 212.723 129.213 211.975 128.22 210.999C127.226 210.022 126.459 208.839 125.972 207.534C125.485 206.229 125.29 204.834 125.4 203.445C125.4 197.392 129.582 192.974 136.389 192.974C138.124 192.931 139.849 193.25 141.454 193.91L140.821 196.047C139.409 195.429 137.877 195.131 136.336 195.176C131.389 195.176 128.17 198.249 128.17 203.326C128.17 208.404 131.27 211.529 136.006 211.529C137.197 211.592 138.389 211.403 139.502 210.975V204.935H135.373V202.825H142.061V212.571Z" fill="white"/>
<path d="M156.572 203.959H148.657V211.278H157.456V213.481H146.032V193.185H157.008V195.387H148.684V201.797H156.599L156.572 203.959Z" fill="white"/>
<path d="M167.284 213.481V193.185H170.147L176.65 203.445C178.005 205.565 179.225 207.767 180.304 210.039C180.067 207.401 180.001 204.869 180.001 201.704V193.211H182.481V213.507H179.843L173.392 203.208C171.992 201.025 170.724 198.762 169.593 196.429H169.5C169.659 199.001 169.711 201.44 169.711 204.803V213.481H167.284Z" fill="white"/>
<path d="M204.444 203.115C204.444 210.105 200.197 213.811 195.012 213.811C189.828 213.811 185.884 209.656 185.884 203.511C185.884 197.062 189.841 192.855 195.316 192.855C200.79 192.855 204.444 197.102 204.444 203.115ZM188.694 203.445C188.694 207.784 191.042 211.674 195.171 211.674C199.3 211.674 201.674 207.85 201.674 203.234C201.674 199.212 199.564 194.992 195.197 194.992C190.831 194.992 188.694 199.001 188.694 203.445Z" fill="white"/>
<path d="M210.948 195.414H204.774V193.185H219.813V195.414H213.6V213.481H210.961L210.948 195.414Z" fill="white"/>
<path d="M228.454 193.185H239.39V195.387H231.079V202.126H238.756V204.289H231.079V213.52H228.44L228.454 193.185Z" fill="white"/>
<path d="M260.47 203.115C260.47 210.105 256.223 213.811 251.051 213.811C245.682 213.811 241.923 209.656 241.923 203.511C241.923 197.062 245.88 192.855 251.342 192.855C256.803 192.855 260.47 197.102 260.47 203.115ZM244.719 203.445C244.719 207.784 247.068 211.674 251.197 211.674C255.326 211.674 257.7 207.85 257.7 203.234C257.7 199.212 255.589 194.992 251.223 194.992C246.857 194.992 244.719 199.001 244.719 203.445Z" fill="white"/>
<path d="M266.499 193.185V205.199C266.499 209.749 268.517 211.674 271.235 211.674C274.242 211.674 276.168 209.683 276.168 205.199V193.185H278.807V205.054C278.807 211.292 275.522 213.85 271.129 213.85C266.974 213.85 263.834 211.476 263.834 205.173V193.225L266.499 193.185Z" fill="white"/>
<path d="M283.371 213.481V193.185H286.234L292.737 203.445C294.093 205.562 295.309 207.764 296.378 210.039H296.444C296.207 207.401 296.141 204.869 296.141 201.704V193.211H298.607V213.507H295.969L289.532 203.208C288.127 201.028 286.858 198.765 285.732 196.429H285.64C285.785 199.001 285.851 201.44 285.851 204.803V213.481H283.371Z" fill="white"/>
<path d="M303.158 193.449C305.005 193.171 306.87 193.03 308.738 193.027C312.498 193.027 315.189 193.91 316.957 195.559C317.932 196.496 318.693 197.633 319.188 198.892C319.682 200.15 319.897 201.501 319.819 202.852C319.894 204.299 319.675 205.747 319.173 207.107C318.672 208.467 317.9 209.711 316.904 210.764C315.004 212.663 311.865 213.692 307.92 213.692C306.328 213.68 304.738 213.574 303.158 213.375V193.449ZM305.797 211.397C306.67 211.527 307.553 211.58 308.435 211.555C314.041 211.555 317.075 208.417 317.075 202.944C317.075 198.157 314.437 195.11 308.857 195.11C307.825 195.091 306.795 195.184 305.783 195.387L305.797 211.397Z" fill="white"/>
<path d="M81.2743 124.029C82.4062 124.593 83.3705 125.443 84.0709 126.496C84.6505 127.732 84.935 129.087 84.902 130.452L85.2977 138.958C85.4768 140.357 85.3092 141.779 84.8096 143.099C84.5435 143.75 84.0565 144.286 83.4342 144.614C82.8118 144.942 82.0939 145.041 81.4062 144.892C81.9113 146.548 82.0747 148.289 81.8865 150.009C81.6983 151.73 81.1623 153.394 80.3113 154.902C79.8847 155.537 79.5515 156.229 79.3219 156.959C79.2123 157.839 79.2569 158.732 79.4538 159.596C79.753 161.73 79.5935 163.903 78.9862 165.97C78.3788 168.037 77.3375 169.951 75.9316 171.584C75.5019 172.119 74.9734 172.567 74.375 172.903C73.5902 173.237 72.748 173.416 71.895 173.43L68.0166 173.76C67.8249 173.823 67.6213 173.841 67.4214 173.813C67.2216 173.785 67.0309 173.711 66.864 173.598C66.697 173.484 66.5584 173.334 66.4586 173.159C66.3588 172.983 66.3006 172.788 66.2885 172.586C63.3437 163.248 62.0056 153.478 62.331 143.692C62.4835 138.761 63.0751 133.854 64.0987 129.028C64.7187 126.205 65.9323 121.906 68.9532 120.759C72.858 119.387 77.8972 122.091 81.2743 124.029Z" fill="#EEA886"/>
<path d="M336.032 124.029C334.9 124.593 333.935 125.443 333.235 126.495C332.655 127.732 332.371 129.086 332.404 130.452L332.008 138.958C331.829 140.357 331.997 141.779 332.496 143.099C332.762 143.75 333.249 144.286 333.872 144.614C334.494 144.942 335.212 145.04 335.9 144.892C335.396 146.547 335.232 148.287 335.418 150.007C335.603 151.727 336.135 153.392 336.981 154.902C337.417 155.533 337.755 156.226 337.984 156.959C338.095 157.839 338.046 158.733 337.839 159.596C337.546 161.731 337.709 163.903 338.319 165.97C338.928 168.036 339.97 169.95 341.374 171.584C341.804 172.119 342.332 172.567 342.931 172.903C343.716 173.237 344.558 173.416 345.411 173.43L349.329 173.813C349.521 173.875 349.724 173.894 349.924 173.865C350.124 173.837 350.315 173.764 350.481 173.65C350.648 173.537 350.787 173.387 350.887 173.211C350.987 173.036 351.045 172.84 351.057 172.639C354.002 163.301 355.34 153.531 355.014 143.745C354.864 138.813 354.268 133.905 353.234 129.08C352.627 126.258 351.914 122.724 348.92 121.576C344.976 120.139 339.409 122.091 336.032 124.029Z" fill="#EEA886"/>
</g>
<defs>
<linearGradient id="paint0_linear_61_23078" x1="206.74" y1="341.559" x2="210.577" y2="450.41" gradientUnits="userSpaceOnUse">
<stop stop-opacity="0"/>
<stop offset="0.95"/>
</linearGradient>
<linearGradient id="paint1_linear_61_23078" x1="89.3075" y1="305.465" x2="85.4711" y2="153.702" gradientUnits="userSpaceOnUse">
<stop stop-opacity="0"/>
<stop offset="0.99"/>
</linearGradient>
<linearGradient id="paint2_linear_61_23078" x1="337.707" y1="284.549" x2="335.15" y2="189.347" gradientUnits="userSpaceOnUse">
<stop stop-opacity="0"/>
<stop offset="0.95"/>
</linearGradient>
<linearGradient id="paint3_linear_61_23078" x1="204.379" y1="314.459" x2="210.351" y2="107.835" gradientUnits="userSpaceOnUse">
<stop stop-opacity="0"/>
<stop offset="0.99"/>
</linearGradient>
<clipPath id="clip0_61_23078">
<rect width="416" height="403" fill="white"/>
</clipPath>
</defs>
</svg>
