<svg width="40" height="40" viewBox="0 0 40 40" fill="none" xmlns="http://www.w3.org/2000/svg">
<rect width="40" height="40" rx="4" fill="#FEF2CF"/>
<path d="M16 19.4285H20.2857M16 22.8571H20.2857M16 26.2856H20.2857M23.7143 27.1428H26.2857C27.7059 27.1428 28.8571 25.9915 28.8571 24.5714V12.695C28.8571 11.3979 27.8914 10.2972 26.5988 10.19C26.1722 10.1545 25.7442 10.124 25.3148 10.0984M18.6852 10.0984C18.6112 10.3382 18.5714 10.593 18.5714 10.8571C18.5714 11.3305 18.9552 11.7142 19.4286 11.7142H24.5714C25.0448 11.7142 25.4286 11.3305 25.4286 10.8571C25.4286 10.593 25.3888 10.3382 25.3148 10.0984M18.6852 10.0984C19.0089 9.04858 19.9868 8.28564 21.1429 8.28564H22.8571C24.0132 8.28564 24.9911 9.04858 25.3148 10.0984M18.6852 10.0984C18.2558 10.124 17.8278 10.1545 17.4012 10.19C16.1086 10.2972 15.1429 11.3979 15.1429 12.695V15.1428M15.1429 15.1428H11.2857C10.5756 15.1428 10 15.7184 10 16.4285V29.2856C10 29.9957 10.5756 30.5714 11.2857 30.5714H22.4286C23.1387 30.5714 23.7143 29.9957 23.7143 29.2856V16.4285C23.7143 15.7184 23.1387 15.1428 22.4286 15.1428H15.1429ZM13.4286 19.4285H13.4371V19.4371H13.4286V19.4285ZM13.4286 22.8571H13.4371V22.8656H13.4286V22.8571ZM13.4286 26.2856H13.4371V26.2942H13.4286V26.2856Z" stroke="#FFC000" stroke-width="1.5" stroke-linecap="round" stroke-linejoin="round"/>
</svg>
